# xmcd CD database file
#
# Track frame offsets:
#	150
#	16147
#	31724
#	49337
#	62291
#	81144
#	93976
#	111412
#	124511
#	141754
#	152751
#	167570
#	192745
#
# Disc length: 2855 seconds
#
# Revision: 0
# Processed by: cddbd v1.5.2PL0 Copyright (c) Steve Scherf et al.
# Submitted via: CDex 1.51
#
DISCID=a10b250d
DTITLE=Russel Burke -  An Evening With "Russell"
DYEAR=2007
DGENRE=Country
TTITLE0=Sounds of Silence
TTITLE1=The Times Are A Changing
TTITLE2=The Green Green Grass Of Home
TTITLE3=Ruby Don't Take Your Love To Town
TTITLE4=The Blues Man
TTITLE5=Heart Of Gold
TTITLE6=Let It Be
TTITLE7=Folsom Prison Blues
TTITLE8=Three Wooden Crosses
TTITLE9=Lodi
TTITLE10=Solitary Man
TTITLE11=Holly Holy
TTITLE12=If Tomorrow Never Comes
EXTD=YEAR: 2007
EXTT0=
EXTT1=
EXTT2=
EXTT3=
EXTT4=
EXTT5=
EXTT6=
EXTT7=
EXTT8=
EXTT9=
EXTT10=
EXTT11=
EXTT12=
PLAYORDER=
